<?xml version="1.0" encoding="UTF-8" standalone="no"?>
<svg xmlns="http://www.w3.org/2000/svg" viewBox="0 0 24 24">
<style>
	g path { stroke: none; }
	g.root { display: none; }
	g.root:target { display: inline; }
	g line { stroke: black; }
	g circle { stroke: black; }
	g polyline { stroke: black; }
</style>
<g class="root" id="search" data-name="search">
	<path d="M23.234 21.861L17.522 15.92c1.468-1.746 2.274-3.942 2.274-6.23c0-5.343-4.347-9.69-9.69-9.69s-9.69 4.347-9.69 9.69s4.347 9.69 9.69 9.69c2.006 0 3.918-0.604 5.552-1.754l5.756 5.986c0.24 0.25 0.564 0.387 0.91 0.387c0.328 0 0.639-0.126 0.876-0.352C23.7 23.164 23.716 22.364 23.234 21.861zM10.104 2.529c3.95 0 7.163 3.213 7.163 7.163s-3.213 7.163-7.163 7.163s-7.163-3.213-7.163-7.163S6.156 2.529 10.104 2.529z" />
</g>
<g class="root" id="court" data-name="court">
	<path d="M10 1.065l9.267 4.877c0.074 0.039 0.154 0.057 0.232 0.057c0.18 0 0.353-0.097 0.443-0.267c0.129-0.244 0.035-0.547-0.209-0.676l-9.5-5c-0.146-0.077-0.32-0.077-0.466 0l-9.5 5c-0.244 0.129-0.338 0.431-0.209 0.676c0.129 0.244 0.431 0.338 0.676 0.209L10 1.065z" />
	<path d="M19.5 7.5c0-0.276-0.224-0.5-0.5-0.5H1c-0.276 0-0.5 0.224-0.5 0.5s0.224 0.5 0.5 0.5h18C19.276 8 19.5 7.776 19.5 7.5z" />
	<path d="M23.309 18.5l-1.654-3.309c0.429-0.216 0.774-0.522 0.836-0.848c0.051-0.271-0.127-0.533-0.398-0.584c-0.247-0.047-0.485 0.096-0.565 0.326c-0.121 0.133-0.625 0.415-1.066 0.415c-0.997 0-1.436-0.306-1.945-0.66c-0.488-0.34-1.032-0.719-2.016-0.816V12.5c0-0.276-0.224-0.5-0.5-0.5c-0.276 0-0.5 0.224-0.5 0.5v0.524c-0.984 0.097-1.529 0.476-2.016 0.816C12.975 14.194 12.536 14.5 11.539 14.5c-0.441 0-0.946-0.282-1.066-0.416c-0.08-0.23-0.319-0.372-0.565-0.326c-0.271 0.051-0.449 0.313-0.398 0.584c0.062 0.326 0.406 0.632 0.836 0.848L8.691 18.5H8v0.679c0 1.556 1.458 2.821 3.25 2.821s3.25-1.266 3.25-2.821V18.5h-0.691l-1.526-3.055c0.832-0.131 1.326-0.474 1.772-0.785c0.414-0.289 0.783-0.545 1.445-0.631v8.703c-0.357 0.149-1.195 0.266-2 0.267c-0.276 0-0.5 0.224-0.5 0.5s0.224 0.5 0.5 0.5c0.437 0 1.743-0.033 2.5-0.405c0.757 0.371 2.062 0.405 2.5 0.405c0.276 0 0.5-0.224 0.5-0.5c0-0.276-0.224-0.5-0.5-0.5c-0.805-0.001-1.644-0.117-2-0.267V14.03c0.662 0.085 1.031 0.342 1.445 0.631c0.446 0.311 0.939 0.654 1.772 0.785L18.191 18.5H17.5v0.679c0 1.556 1.458 2.821 3.25 2.821s3.25-1.266 3.25-2.821V18.5H23.309zM11.25 21c-1.105 0-2.027-0.649-2.215-1.5h4.43C13.277 20.352 12.355 21 11.25 21zM12.691 18.5h-2.882L11.25 15.616L12.691 18.5zM20.75 15.616L22.191 18.5h-2.882L20.75 15.616zM20.75 21c-1.105 0-2.027-0.649-2.215-1.5h4.43C22.777 20.352 21.855 21 20.75 21z" />
	<path d="M12 4.5c0-1.103-0.897-2-2-2s-2 0.897-2 2s0.897 2 2 2S12 5.603 12 4.5zM9 4.5c0-0.551 0.449-1 1-1s1 0.449 1 1s-0.449 1-1 1S9 5.051 9 4.5z" />
	<path d="M7 19H1c-0.276 0-0.5 0.224-0.5 0.5s0.224 0.5 0.5 0.5h6c0.276 0 0.5-0.224 0.5-0.5S7.276 19 7 19z" />
	<path d="M6.724 9.671l0.224-0.447c0.124-0.247 0.023-0.547-0.224-0.671c-0.247-0.124-0.547-0.023-0.671 0.224l-0.224 0.447c-0.085 0.171-0.257 0.276-0.447 0.276H3.118c-0.191 0-0.362-0.106-0.447-0.276l-0.224-0.447c-0.124-0.247-0.424-0.347-0.671-0.224c-0.247 0.124-0.347 0.424-0.224 0.671l0.224 0.447c0.158 0.316 0.415 0.558 0.724 0.697v6.264c-0.308 0.139-0.566 0.381-0.724 0.697l-0.224 0.447c-0.124 0.247-0.023 0.547 0.224 0.671c0.247 0.124 0.547 0.023 0.671-0.224l0.224-0.447c0.085-0.171 0.257-0.276 0.447-0.276h2.264c0.191 0 0.362 0.106 0.447 0.276l0.224 0.447c0.087 0.175 0.264 0.276 0.447 0.276c0.075 0 0.151-0.017 0.223-0.053c0.247-0.124 0.347-0.424 0.224-0.671l-0.224-0.447c-0.158-0.316-0.415-0.558-0.724-0.697V10.368C6.309 10.229 6.566 9.987 6.724 9.671zM5 16.5H3.5v-6h1.5V16.5z" />
	<path d="M8.5 10.368V13h1v-2.5h1.5v2.5h1v-2.632c0.308-0.139 0.566-0.381 0.724-0.697l0.224-0.447c0.124-0.247 0.024-0.547-0.224-0.671c-0.247-0.124-0.547-0.024-0.671 0.224l-0.224 0.447c-0.085 0.171-0.256 0.276-0.447 0.276h-2.264c-0.191 0-0.362-0.106-0.447-0.276l-0.224-0.447c-0.124-0.247-0.424-0.347-0.671-0.224c-0.247 0.124-0.347 0.424-0.224 0.671l0.224 0.447C7.934 9.987 8.192 10.229 8.5 10.368z" />
	<path d="M18 12v-1.632c0.308-0.139 0.566-0.381 0.724-0.697l0.224-0.447c0.124-0.247 0.024-0.547-0.224-0.671c-0.247-0.124-0.547-0.024-0.671 0.224l-0.224 0.447c-0.085 0.171-0.257 0.276-0.447 0.276h-2.264c-0.191 0-0.362-0.106-0.447-0.276l-0.224-0.447c-0.124-0.247-0.424-0.347-0.671-0.224c-0.247 0.124-0.347 0.424-0.224 0.671l0.224 0.447c0.158 0.316 0.415 0.558 0.724 0.697V11.5h1v-1h1.5v1.5H18z" />
</g>
<g class="root" id="clients" data-name="clients">
	<path d="M3 6.5h3c0.654 0 1.239 0.276 1.603 0.756c0.167 0.22 0.481 0.263 0.701 0.096c0.22-0.167 0.263-0.481 0.096-0.701c-0.374-0.494-0.894-0.844-1.491-1.021c0.368-0.426 0.591-0.976 0.591-1.575V2.444C7.5 1.097 6.379 0 5 0S2.5 1.097 2.5 2.444v1.611c0 0.54 0.181 1.04 0.485 1.445C1.282 5.508 0 6.795 0 8.5v4.5c0 1.208 0.86 2.218 2 2.45V22.5c0 0.276 0.224 0.5 0.5 0.5s0.5-0.224 0.5-0.5V9.5c0-0.276-0.224-0.5-0.5-0.5s-0.5 0.224-0.5 0.5v4.914c-0.582-0.206-1-0.762-1-1.414v-4.5C1 7.341 1.841 6.5 3 6.5zM3.5 2.444C3.5 1.648 4.173 1 5 1s1.5 0.648 1.5 1.444v1.611C6.5 4.852 5.827 5.5 5 5.5S3.5 4.852 3.5 4.056V2.444z" />
	<path d="M6 17v-1.5c0-1.103 0.897-2 2-2h0.5c1.379 0 2.5-1.009 2.5-2.25v-1c0-1.241-1.121-2.25-2.5-2.25s-2.5 1.009-2.5 2.25v1c0 0.601 0.264 1.147 0.691 1.551C5.691 13.288 5 14.314 5 15.5v1.5c0 0.521 0.204 1.007 0.42 1.521C5.692 19.168 6 19.901 6 20.906V22.5c0 0.276 0.224 0.5 0.5 0.5s0.5-0.224 0.5-0.5v-1.594c0-1.206-0.365-2.075-0.658-2.772C6.159 17.697 6 17.319 6 17zM7 10.25c0-0.689 0.673-1.25 1.5-1.25s1.5 0.561 1.5 1.25v1c0 0.689-0.673 1.25-1.5 1.25s-1.5-0.561-1.5-1.25V10.25z" />
	<path d="M14 6.5h-0.5V4.926c0.203 0 0.394-0.125 0.469-0.327c0.096-0.259-0.037-0.547-0.296-0.642c-0.146-0.054-0.288-0.119-0.424-0.192c-0.008-0.004-0.016-0.009-0.024-0.012c-0.923-0.502-1.576-1.345-1.583-1.354c-0.162-0.213-0.464-0.261-0.684-0.107C10.919 2.318 10 2.973 10 4.167v1.12c0 0.475 0.14 0.91 0.381 1.266c-0.202 0.036-0.393 0.091-0.572 0.165c-0.255 0.105-0.377 0.398-0.272 0.653c0.105 0.255 0.398 0.377 0.653 0.272c0.23-0.095 0.502-0.142 0.81-0.142h1.132c0.015 0 0.029 0.001 0.044 0.001l0.825-0.001H14c1.139 0 1.739 0.625 2.008 2.091c0.074 0.402 0.184 0.938 0.328 1.591c0.051 0.234 0.258 0.393 0.488 0.393c0.036 0 0.071-0.004 0.108-0.012c0.27-0.059 0.441-0.326 0.381-0.596c-0.141-0.642-0.249-1.166-0.321-1.558C16.637 7.479 15.631 6.5 14 6.5zM11 4.167c0-0.305 0.108-0.55 0.228-0.728c0.289 0.302 0.729 0.709 1.272 1.046V6.5h-0.348C11.494 6.488 11 5.971 11 5.287V4.167z" />
	<path d="M9.5 3c0.276 0 0.5-0.224 0.5-0.5c0-0.694 0.983-1.5 2.25-1.5c1.241 0 2.25 0.927 2.25 2.067V5c0 0.724 0.372 1.086 0.595 1.303c0.018 0.017 0.035 0.034 0.051 0.05c0.098 0.098 0.226 0.146 0.354 0.146s0.256-0.049 0.354-0.146c0.195-0.195 0.195-0.512 0-0.707c-0.019-0.019-0.04-0.039-0.061-0.059C15.616 5.415 15.5 5.302 15.5 5V3.067C15.5 1.376 14.042 0 12.25 0c-1.731 0-3.25 1.168-3.25 2.5C9 2.776 9.224 3 9.5 3z" />
	<path d="M23.309 18.5l-1.703-3.408c0.111-0.086 0.209-0.182 0.29-0.286c0.169-0.219 0.128-0.532-0.091-0.701c-0.219-0.169-0.532-0.128-0.701 0.091c-0.111 0.144-0.402 0.306-0.642 0.306c-0.997 0-1.436-0.306-1.945-0.66c-0.488-0.34-1.033-0.719-2.016-0.816V12.5c0-0.276-0.224-0.5-0.5-0.5s-0.5 0.224-0.5 0.5v0.524c-0.984 0.097-1.529 0.476-2.016 0.816C12.975 14.194 12.536 14.5 11.538 14.5c-0.24 0-0.531-0.161-0.642-0.306c-0.169-0.219-0.482-0.259-0.701-0.091c-0.219 0.169-0.259 0.482-0.091 0.701c0.081 0.104 0.179 0.201 0.29 0.286L8.691 18.5H8v0.679c0 1.556 1.458 2.821 3.25 2.821s3.25-1.266 3.25-2.821V18.5h-0.691l-1.526-3.055c0.832-0.131 1.326-0.474 1.772-0.785c0.414-0.289 0.783-0.545 1.445-0.631v8.203c-0.357 0.149-1.195 0.266-2 0.267c-0.276 0-0.5 0.224-0.5 0.5s0.224 0.5 0.5 0.5c0.438 0 1.743-0.033 2.5-0.405c0.757 0.371 2.062 0.405 2.5 0.405c0.276 0 0.5-0.224 0.5-0.5c0-0.276-0.224-0.5-0.5-0.5c-0.805-0.001-1.643-0.118-2-0.267V14.03c0.662 0.085 1.031 0.342 1.445 0.631c0.446 0.311 0.939 0.654 1.772 0.785L18.191 18.5H17.5v0.679c0 1.556 1.458 2.821 3.25 2.821s3.25-1.266 3.25-2.821V18.5H23.309zM11.25 21c-1.105 0-2.027-0.649-2.215-1.5h4.43C13.277 20.352 12.355 21 11.25 21zM9.809 18.5L11.25 15.616L12.691 18.5H9.809zM20.75 15.616L22.191 18.5h-2.882L20.75 15.616zM20.75 21c-1.105 0-2.027-0.649-2.215-1.5h4.43C22.777 20.352 21.855 21 20.75 21z" />
</g>
<g class="root" id="experience" data-name="experience">
	<path d="M2.067 17.992c0.191 0 0.373-0.11 0.456-0.296c0.112-0.251 0-0.547-0.252-0.659c-0.294-0.132-0.567-0.436-0.898-1.017c0.302-0.108 0.601-0.123 0.894-0.046c0.574 0.153 1.097 0.653 1.512 1.446c0.128 0.244 0.429 0.339 0.673 0.211c0.244-0.128 0.339-0.429 0.211-0.673c-0.548-1.047-1.287-1.721-2.139-1.948c-0.698-0.186-1.424-0.057-2.1 0.373l-0.382 0.243l0.205 0.403c0.471 0.928 0.927 1.608 1.616 1.917C1.93 17.979 1.999 17.992 2.067 17.992z" />
	<path d="M3.927 18.085c-0.782-0.017-1.52 0.31-2.134 0.948l-0.319 0.33l0.303 0.345c0.798 0.907 1.621 1.377 2.448 1.396c0.017 0.001 0.034 0.001 0.052 0.001c0.729 0 1.434-0.349 2.097-1.037l0.319-0.33l-0.303-0.345C5.655 18.556 4.804 18.105 3.927 18.085zM4.248 20.106c-0.432-0.01-0.893-0.243-1.373-0.695c0.323-0.224 0.672-0.339 1.029-0.329c0.469 0.011 0.943 0.224 1.392 0.621C4.94 19.981 4.595 20.115 4.248 20.106z" />
	<path d="M1.271 14.15c0.219 0.166 0.532 0.122 0.699-0.098c0.166-0.22 0.122-0.532-0.098-0.698c-0.405-0.306-0.669-0.849-0.787-1.617c0.329 0.057 0.623 0.196 0.868 0.411c0.493 0.431 0.783 1.142 0.839 2.054c0.016 0.264 0.236 0.468 0.498 0.468c0.01 0 0.021 0 0.031-0.001c0.275-0.017 0.484-0.253 0.468-0.528c-0.072-1.184-0.48-2.133-1.178-2.744c-0.574-0.503-1.307-0.737-2.117-0.679L0 10.753l0.03 0.493C0.114 12.615 0.531 13.592 1.271 14.15z" />
	<path d="M2.183 10.315c0.235-0.144 0.309-0.451 0.165-0.686c-0.274-0.447-0.339-1.051-0.198-1.801c0.855 0.565 1.142 1.663 0.746 2.996c-0.079 0.264 0.072 0.542 0.336 0.62c0.047 0.014 0.095 0.021 0.142 0.021c0.215 0 0.413-0.14 0.478-0.357c0.612-2.064-0.141-3.86-1.875-4.468l-0.494-0.173l-0.149 0.502c-0.387 1.304-0.332 2.374 0.162 3.182C1.64 10.385 1.948 10.459 2.183 10.315z" />
	<path d="M3.686 6.706c0.272-0.039 0.462-0.292 0.422-0.565c-0.075-0.519 0.101-1.099 0.524-1.728c0.564 0.864 0.395 1.988-0.493 3.053c-0.176 0.211-0.148 0.526 0.064 0.703c0.094 0.078 0.206 0.116 0.319 0.116c0.143 0 0.284-0.061 0.383-0.179c1.374-1.647 1.391-3.596 0.042-4.851L4.563 2.896l-0.337 0.404C3.357 4.34 2.985 5.344 3.121 6.283C3.16 6.557 3.414 6.745 3.686 6.706z" />
	<path d="M21.475 15.011c-0.851 0.227-1.59 0.901-2.139 1.948c-0.128 0.244-0.034 0.546 0.211 0.673c0.244 0.128 0.546 0.034 0.673-0.211c0.415-0.793 0.938-1.294 1.512-1.446c0.294-0.078 0.592-0.063 0.894 0.046c-0.331 0.581-0.604 0.885-0.898 1.017c-0.251 0.112-0.364 0.408-0.252 0.659c0.083 0.185 0.265 0.296 0.456 0.296c0.068 0 0.137-0.014 0.203-0.044c0.69-0.309 1.145-0.989 1.616-1.917l0.205-0.403l-0.382-0.243C22.899 14.955 22.173 14.826 21.475 15.011z" />
	<path d="M20.073 18.085c-0.877 0.02-1.728 0.472-2.463 1.307l-0.303 0.345l0.319 0.33c0.663 0.688 1.369 1.037 2.097 1.037c0.017 0 0.035 0 0.052-0.001c0.826-0.019 1.65-0.488 2.448-1.396l0.303-0.345l-0.319-0.33C21.593 18.394 20.856 18.066 20.073 18.085zM19.752 20.106c-0.347 0.009-0.693-0.125-1.048-0.403c0.448-0.397 0.923-0.61 1.392-0.621c0.358-0.009 0.706 0.105 1.029 0.329C20.645 19.863 20.184 20.096 19.752 20.106z" />
	<path d="M23.507 10.718c-0.811-0.059-1.543 0.176-2.117 0.679c-0.698 0.611-1.105 1.56-1.178 2.744c-0.017 0.275 0.193 0.511 0.468 0.528c0.011 0.001 0.021 0.001 0.031 0.001c0.261 0 0.481-0.204 0.498-0.468c0.056-0.912 0.346-1.623 0.839-2.054c0.246-0.215 0.541-0.354 0.868-0.411c-0.118 0.769-0.383 1.311-0.787 1.617c-0.22 0.166-0.264 0.479-0.098 0.698c0.166 0.22 0.479 0.264 0.699 0.098c0.739-0.558 1.157-1.535 1.24-2.904l0.03-0.493L23.507 10.718z" />
	<path d="M20.147 11.108c0.064 0.217 0.263 0.357 0.478 0.357c0.047 0 0.095-0.007 0.142-0.021c0.264-0.079 0.415-0.356 0.336-0.62c-0.395-1.333-0.108-2.432 0.746-2.996c0.142 0.75 0.076 1.355-0.198 1.801c-0.144 0.235-0.07 0.542 0.165 0.686c0.235 0.144 0.542 0.07 0.686-0.165c0.494-0.807 0.549-1.878 0.162-3.182l-0.149-0.502l-0.494 0.173C20.288 7.248 19.535 9.044 20.147 11.108z" />
	<path d="M19.477 8.284c0.113 0 0.226-0.038 0.319-0.116c0.211-0.176 0.24-0.491 0.064-0.703c-0.888-1.064-1.056-2.188-0.493-3.053c0.423 0.629 0.599 1.208 0.524 1.728c-0.039 0.272 0.15 0.526 0.422 0.565c0.272 0.039 0.526-0.15 0.565-0.422c0.136-0.94-0.236-1.943-1.104-2.984L19.437 2.896l-0.385 0.358c-1.349 1.255-1.332 3.205 0.042 4.851C19.192 8.223 19.334 8.284 19.477 8.284z" />
	<path d="M13.496 14.271c0 1.552 1.231 2.814 2.743 2.814s2.743-1.263 2.743-2.814v-0.178c0-0.08-0.019-0.156-0.053-0.223l0.001 0l-1.702-3.406c0.604-0.2 1.167-0.592 1.248-1.016c0.051-0.271-0.127-0.532-0.397-0.583c-0.246-0.047-0.484 0.096-0.564 0.325c-0.12 0.133-0.623 0.414-1.064 0.414c-0.994 0-1.433-0.306-1.94-0.658c-0.487-0.339-1.03-0.717-2.011-0.814v-0.522c0-0.276-0.223-0.499-0.499-0.499s-0.499 0.223-0.499 0.499v0.522c-0.981 0.097-1.525 0.474-2.011 0.814c-0.508 0.354-0.946 0.658-1.94 0.658c-0.44 0-0.943-0.282-1.064-0.414c-0.08-0.229-0.317-0.372-0.564-0.325c-0.271 0.051-0.448 0.312-0.397 0.583c0.08 0.425 0.644 0.817 1.248 1.016l-1.702 3.406l0.001 0c-0.034 0.067-0.053 0.143-0.053 0.223v0.178c0 1.552 1.231 2.814 2.743 2.814s2.743-1.263 2.743-2.814v-0.178c0-0.08-0.019-0.156-0.053-0.223l0.001 0l-1.71-3.422c0.571-0.164 0.96-0.435 1.319-0.684c0.413-0.288 0.781-0.544 1.441-0.629v8.682c-0.356 0.149-1.192 0.266-1.995 0.266c-0.276 0-0.499 0.223-0.499 0.499s0.223 0.499 0.499 0.499c0.436 0 1.739-0.033 2.494-0.404c0.755 0.37 2.057 0.404 2.494 0.404c0.276 0 0.499-0.223 0.499-0.499c0-0.276-0.223-0.499-0.499-0.499c-0.803-0.001-1.64-0.117-1.995-0.266V9.136c0.66 0.085 1.028 0.341 1.441 0.629c0.358 0.249 0.748 0.52 1.319 0.684l-1.71 3.422l0.001 0c-0.034 0.067-0.053 0.143-0.053 0.223V14.271zM7.76 10.718l1.438 2.877h-2.875L7.76 10.718zM7.76 16.089c-0.857 0-1.572-0.647-1.718-1.496h3.437C9.333 15.442 8.618 16.089 7.76 16.089zM16.24 16.089c-0.857 0-1.572-0.647-1.718-1.496h3.437C17.812 15.442 17.097 16.089 16.24 16.089zM14.802 13.595l1.438-2.877l1.438 2.877H14.802z" />
</g>
<g class="root" id="attorney" data-name="attorney">
	<path d="M16.5 6c1.449 0 2.5-1.051 2.5-2.5V2.5c0-1.449-1.051-2.5-2.5-2.5s-2.5 1.051-2.5 2.5v1C14 4.949 15.051 6 16.5 6zM15 2.5c0-0.898 0.602-1.5 1.5-1.5s1.5 0.602 1.5 1.5v1c0 0.898-0.602 1.5-1.5 1.5s-1.5-0.602-1.5-1.5V2.5z" />
	<rect x="15.5" y="16" width="1" height="7" class="st0" />
	<path d="M23.5 15h-2v-5c0-0.972-0.545-1.873-1.534-2.535C19.035 6.842 17.804 6.5 16.5 6.5s-2.535 0.342-3.466 0.965C12.045 8.127 11.5 9.028 11.5 10v4c0 1.542 0.766 2.5 2 2.5v6.5h1V10.5h-1v5c-0.87 0-1-0.94-1-1.5v-4c0-0.628 0.388-1.233 1.091-1.704C14.358 7.782 15.391 7.5 16.5 7.5s2.142 0.282 2.909 0.796C20.112 8.767 20.5 9.372 20.5 10v5h-1v-4.5h-1v4.5h-0.5c-0.276 0-0.5 0.224-0.5 0.5v4.5c0 0.276 0.224 0.5 0.5 0.5h0.5v2.5h1v-2.5h4c0.276 0 0.5-0.224 0.5-0.5v-4.5C24 15.224 23.776 15 23.5 15zM23 19.5h-4.5v-3.5h4.5V19.5z" />
	<path d="M8.001 20.46c-0.502-0.231-2.105-1.059-3.678-2.206C2.149 16.668 1 15.197 1 14V6.989c2.356-0.342 5.662-1.826 7-2.834c0.977 0.737 2.979 1.704 4.811 2.3l0.309-0.951c-2.104-0.684-4.201-1.791-4.766-2.357c-0.196-0.195-0.512-0.195-0.707 0c-0.807 0.807-4.726 2.697-7.188 2.899C0.2 6.066 0 6.283 0 6.544V14c0 1.568 1.281 3.289 3.809 5.116c1.816 1.313 3.752 2.284 4.063 2.367c0.042 0.011 0.085 0.017 0.128 0.017s0.086-0.006 0.128-0.017c0.299-0.079 2.582-1.204 4.614-2.779l-0.612-0.79C10.428 19.234 8.56 20.205 8.001 20.46z" />
	<path d="M8 7.088c0.644 0.37 1.776 0.866 2.832 1.235l0.329-0.944c-1.277-0.446-2.466-1.006-2.878-1.291c-0.171-0.118-0.397-0.118-0.568 0c-0.639 0.442-3.369 1.654-5.284 1.916C2.184 8.039 2 8.25 2 8.5v4.9c0 1.088 0.957 2.349 2.843 3.748c1.28 0.949 2.758 1.771 3.041 1.839c0.038 0.009 0.077 0.014 0.116 0.014s0.078-0.004 0.116-0.014c0.298-0.071 1.88-0.96 3.178-1.941l-0.603-0.798c-1.102 0.833-2.259 1.49-2.691 1.706c-0.426-0.214-1.559-0.856-2.647-1.674C3.858 15.157 3 14.107 3 13.4v-4.476C4.799 8.586 7.021 7.651 8 7.088z" />
</g>
<g class="root" id="case" data-name="case">
	<rect x="9.12913797506384" y="11.1882938260478" width="5.91377497371188" height="1.02148114766411" class="st0" />
	<path d="M0.06 11.697l0.006 9.497c0 0.135 0.054 0.266 0.15 0.361C0.311 21.651 0.441 21.704 0.576 21.704c0 0 0 0 0.001 0l22.912-0.015c0.135 0 0.266-0.054 0.361-0.15c0.096-0.096 0.15-0.226 0.15-0.361l-0.011-16.408c0-0.135-0.054-0.266-0.15-0.361c-0.096-0.096-0.225-0.15-0.361-0.15c0 0 0 0-0.001 0l-7.365 0.005L16.111 2.807c0-0.135-0.054-0.266-0.15-0.361C15.866 2.349 15.736 2.296 15.601 2.296c0 0 0 0-0.001 0L8.858 2.301c-0.282 0-0.511 0.229-0.51 0.511l0.001 1.458L0.566 4.275c-0.282 0-0.511 0.229-0.51 0.511l0.004 5.484l-0.041 0.419C0.006 10.809-0.001 10.929-0.001 11.045l0 0.01C-0.001 11.274 0.021 11.489 0.06 11.697zM22.977 20.668l-4.11 0.003l-0.002-3.453l0.504-0.001c0.282 0 0.511-0.229 0.51-0.511l-0.001-1.645l-1.021 0.001l0.001 1.134l-3.274 0.002l-0.001-1.193l-1.021 0.001l0.001 1.704c0 0.282 0.229 0.51 0.511 0.51c0 0 0 0 0.001 0l0.504-0.001l0.002 3.453l-7.391 0.005l-0.002-3.453l0.504-0.001c0.135 0 0.266-0.054 0.361-0.15c0.096-0.096 0.15-0.226 0.15-0.361l-0.001-1.645l-1.021 0.001l0.001 1.134l-3.275 0.002l-0.001-1.193l-1.021 0.001l0.001 1.704c0 0.135 0.054 0.266 0.15 0.361c0.096 0.096 0.225 0.15 0.361 0.15c0 0 0 0 0.001 0l0.504-0.001l0.002 3.453L1.087 20.683l-0.005-7.079c0.669 0.653 1.591 1.058 2.609 1.058c0.001 0 0.002 0 0.002 0l16.853-0.011c0.904-0.001 1.761-0.323 2.425-0.89L22.977 20.668zM7.164 17.225l0.002 3.453l-1.246 0.001l-0.002-3.453L7.164 17.225zM16.6 20.672l-0.002-3.453l1.246-0.001l0.002 3.453L16.6 20.672zM9.369 3.322l5.721-0.004l0.001 0.948l-5.721 0.004L9.369 3.322zM5.127 5.294l0.004 6.205l1.021-0.001l-0.004-6.205l1.425-0.001l0.004 6.205l1.021-0.001l-0.004-6.205l7.511-0.005l0.004 6.325l1.021-0.001l-0.004-6.325l1.425-0.001l0.004 6.325l1.021-0.001l-0.004-6.325l3.394-0.002l0.005 6.896L22.773 12.469c-0.496 0.726-1.329 1.16-2.226 1.16L3.693 13.64c-0.001 0-0.001 0-0.002 0c-1.279 0-2.351-0.877-2.61-2.042l-0.001-1.279l0.004-0.038l-0.004-0.001l-0.003-4.985L5.127 5.294z" />
</g>
<g class="root" id="handshake" data-name="handshake">
	<path d="M23.331 8.108l-2.175 2.273L15.885 5.287l1.939-2.406L17.106 2.302l-2.203 2.735c-0.151 0.187-0.134 0.454 0.039 0.621l0.101 0.098c-0.109 0.099-0.229 0.179-0.285 0.187l-0.101 0.013c-0.414 0.055-1.511 0.2-2.114 0.205c-0.165 0.001-0.601 0.005-2.094 1.392c-0.401-0.222-1.022-0.354-1.537-0.431l0.247-0.322c0.076-0.099 0.109-0.227 0.091-0.35s-0.088-0.236-0.19-0.308l-3.318-2.344L5.209 4.552l2.926 2.066L4.307 11.591l-0.174 0.065l0.041 0.109l-0.435 0.565L0.506 10.211L0 10.983l3.59 2.353c0.075 0.049 0.163 0.075 0.252 0.075c0.144 0 0.278-0.065 0.366-0.18l0.344-0.447l0.162 0.434l-0.25 0.25c-0.273 0.273-0.424 0.637-0.424 1.024c0 0.388 0.151 0.751 0.424 1.025c0.273 0.274 0.637 0.425 1.025 0.425c0.091 0 0.181-0.008 0.269-0.025c-0.017 0.088-0.025 0.178-0.025 0.268c0 0.387 0.151 0.751 0.424 1.025c0.278 0.278 0.648 0.429 1.044 0.424c0 0.006 0 0.013 0 0.019c0 0.388 0.151 0.751 0.424 1.025c0.273 0.274 0.637 0.425 1.025 0.425c0.057 0 0.114-0.003 0.171-0.01c-0.007 0.057-0.01 0.113-0.01 0.17c0 0.387 0.151 0.751 0.424 1.025c0.273 0.274 0.637 0.425 1.025 0.425c0.353 0 0.686-0.125 0.95-0.355l0.035 0.029c0.082 0.069 0.814 0.682 1.142 0.925c0.323 0.239 0.848 0.387 1.371 0.387c0.285 0 0.69-0.045 1.003-0.26c0.293-0.201 0.657-0.595 0.764-1.069c0.343-0.02 0.701-0.171 1.016-0.43c0.369-0.304 0.598-0.679 0.648-1.061l0.01-0.013c0.284-0.026 0.671-0.132 0.996-0.472c0.336-0.353 0.509-0.781 0.49-1.214c0.431-0.305 0.756-0.991 0.788-1.134c0.192-0.861-0.247-1.471-0.714-2.021c-0.029-0.035-0.074-0.081-0.136-0.14c0.221-0.196 0.941-0.845 1.229-1.233c0.339-0.457 0.458-1.103 0.554-1.621c0.005-0.026 0.01-0.053 0.015-0.08l0.431 0.416c0.086 0.083 0.2 0.13 0.32 0.13l0.009 0c0.122-0.003 0.24-0.054 0.324-0.142l2.495-2.608L23.331 8.108zM15.403 15.204l2.309 1.842c0.008 0.012 0.016 0.023 0.024 0.033c0.073 0.214-0.004 0.46-0.211 0.677c-0.206 0.216-0.507 0.198-0.612 0.184l-2.482-2.026l-0.583 0.715l2.343 1.912c0.013 0.024 0.027 0.046 0.043 0.066c0.127 0.163-0.087 0.459-0.28 0.618c-0.162 0.133-0.35 0.219-0.49 0.224l-2.464-2.064l-0.593 0.708l2.114 1.771c0.017 0.043 0.039 0.082 0.068 0.118c0.038 0.047 0.049 0.092 0.039 0.158c-0.029 0.195-0.223 0.422-0.39 0.536c-0.253 0.173-1.009 0.111-1.304-0.108c-0.278-0.206-0.923-0.744-1.069-0.866c0.258-0.271 0.4-0.624 0.401-0.999c0-0.387-0.15-0.751-0.424-1.024c-0.273-0.274-0.638-0.425-1.025-0.425c-0.057 0-0.114 0.003-0.17 0.01c0.007-0.057 0.01-0.113 0.01-0.17c0-0.387-0.15-0.751-0.424-1.024c-0.278-0.279-0.648-0.431-1.044-0.425c0-0.006 0-0.012 0-0.018c0-0.387-0.15-0.751-0.424-1.024c-0.273-0.274-0.637-0.425-1.025-0.425c-0.091 0-0.18 0.008-0.269 0.025c0.017-0.088 0.025-0.178 0.025-0.268c0-0.387-0.15-0.751-0.424-1.024c-0.273-0.274-0.638-0.425-1.025-0.425c-0.199 0-0.396 0.041-0.577 0.119l-0.254-0.683l3.041-3.951c0.476 0.045 1.086 0.148 1.475 0.276c-0.396 0.401-1.244 1.285-1.429 1.699c-0.355 0.795-0.01 1.59 0.461 1.992c0.275 0.234 0.595 0.354 0.949 0.354c0 0 0 0 0 0c0.439 0 0.921-0.191 1.324-0.523l1.805-1.49c2.333 1.881 4.94 4.026 5.21 4.344c0.41 0.484 0.604 0.804 0.521 1.207c-0.036 0.092-0.16 0.301-0.279 0.454c-0.045-0.031-0.095-0.055-0.149-0.069l-2.168-1.73L15.403 15.204zM10.258 19.789c-0.14 0-0.273-0.055-0.372-0.154c-0.099-0.099-0.154-0.232-0.154-0.372c0-0.14 0.055-0.273 0.154-0.372l0.559-0.559c0.099-0.099 0.231-0.154 0.372-0.154c0.141 0 0.273 0.055 0.372 0.154c0.099 0.099 0.154 0.232 0.154 0.372c0 0.14-0.055 0.272-0.155 0.372l-0.559 0.559C10.53 19.734 10.399 19.789 10.258 19.789zM5.117 14.121l0.559-0.559c0.099-0.099 0.231-0.154 0.372-0.154c0.14 0 0.273 0.055 0.372 0.155c0.099 0.099 0.154 0.232 0.154 0.372c0 0.14-0.055 0.272-0.154 0.372l-0.559 0.559c-0.099 0.099-0.231 0.154-0.372 0.154c-0.14 0-0.273-0.055-0.372-0.154l0 0c-0.099-0.099-0.154-0.231-0.154-0.372C4.963 14.352 5.018 14.22 5.117 14.121zM6.81 15.813l0.559-0.559c0.099-0.099 0.231-0.153 0.372-0.153c0.141 0 0.273 0.055 0.372 0.154c0.099 0.099 0.154 0.232 0.154 0.372c0 0.14-0.055 0.273-0.154 0.372l-0.559 0.559c-0.099 0.099-0.231 0.154-0.372 0.154c-0.14 0-0.273-0.055-0.372-0.154l0 0c-0.099-0.099-0.154-0.231-0.154-0.372C6.655 16.045 6.71 15.913 6.81 15.813zM8.277 17.281l0.559-0.559c0.099-0.099 0.231-0.154 0.372-0.154c0.14 0 0.273 0.055 0.372 0.154c0.099 0.099 0.154 0.232 0.154 0.372c0 0.14-0.055 0.272-0.154 0.372l-0.559 0.559c-0.099 0.099-0.231 0.154-0.372 0.154c-0.14 0-0.273-0.055-0.372-0.154l0 0c-0.099-0.099-0.154-0.231-0.154-0.372C8.123 17.513 8.178 17.381 8.277 17.281zM17.949 13.246l-0.022 0.019c-1.207-1.038-3.371-2.791-4.358-3.588l0.5-0.413l-0.588-0.711l-0.647 0.534l-0.067-0.054l-0.259 0.323l-2.059 1.7c-0.11 0.091-0.68 0.526-1.087 0.179c-0.218-0.186-0.379-0.551-0.217-0.913c0.065-0.147 0.658-0.868 1.603-1.784c1.072-1.037 1.678-1.424 1.814-1.456c0.661-0.007 1.747-0.151 2.213-0.213l0.1-0.013c0.343-0.045 0.646-0.281 0.83-0.459l3.943 3.81c-0.065 0.174-0.107 0.398-0.154 0.654c-0.078 0.425-0.176 0.954-0.388 1.239C18.88 12.41 18.194 13.032 17.949 13.246z" />
</g>
</svg>