<?xml version="1.0" encoding="UTF-8" standalone="no"?>
<svg xmlns="http://www.w3.org/2000/svg">
<style>
.root {
	display:none;
}

.root:target {
	display: block;
}
</style>

<g class="root" id="header" viewBox="0 0 360 5">
	<g class="center">
		<path class="line" d="M180,2.5H0" style="stroke-dashoffset: 180; stroke-dasharray: 180;"/>
		<path class="line" d="M180,2.5h180" style="stroke-dashoffset: 180; stroke-dasharray: 180;"/>
	</g>
	<g class="left">
		<path class="line" d="M0,2.5h360" style="stroke-dashoffset: 360; stroke-dasharray: 360;"/>
	</g>
	<g class="right">
		<path class="line" d="M360,2.5L0,2.5" style="stroke-dashoffset: 360; stroke-dasharray: 360;"/>
	</g>
</g>

<g class="root" id="arrow-right" viewBox="0 0 28 28">
	<path class="line" d="M23.6,14 M25.3,14c0-6.2-5.1-11.3-11.3-11.3S2.7,7.8,2.7,14S7.8,25.3,14,25.3
	C20.2,25.3,25.3,20.2,25.3,14z" style="stroke-dashoffset: 71; stroke-dasharray: 71;"/>
	<path class="line" d="M20.2,14l-13,0" style="stroke-dashoffset: 13; stroke-dasharray: 13;"/>
	<path class="line" d="M20.4,14.3l-4.3,-4.5" style="stroke-dashoffset: 7; stroke-dasharray: 7;"/>
	<path class="line" d="M20.4,13.7l-4.3,4.5" style="stroke-dashoffset: 7; stroke-dasharray: 7;"/>
</g>

<g class="root" id="arrow-up" viewBox="0 0 28 28">
	<path class="line" d="M14,2.7C7.8,2.7,2.7,7.8,2.7,14c0,6.2,5.1,11.3,11.3,11.3S25.3,20.2,25.3,14S20.2,2.7,14,2.7z" style="stroke-dashoffset: 71; stroke-dasharray: 71;"/>
	<path class="line" d="M14,7.8v13" style="stroke-dashoffset: 13; stroke-dasharray: 13;"/>
	<path class="line" d="M14.3,7.6l-4.5,4.3" style="stroke-dashoffset: 7; stroke-dasharray: 7;"/>
	<path class="line" d="M13.7,7.6l4.5,4.3" style="stroke-dashoffset: 7; stroke-dasharray: 7;"/>
</g>

<g class="root" id="arrow-left" viewBox="0 0 28 28">
	<path class="line" d="M2.7,14c0,6.2,5.1,11.3,11.3,11.3S25.3,20.2,25.3,14S20.2,2.7,14,2.7S2.7,7.8,2.7,14z" style="stroke-dashoffset: 71; stroke-dasharray: 71;"/>
	<path class="line" d="M7.8,14h13" style="stroke-dashoffset: 13; stroke-dasharray: 13;"/>
	<path class="line" d="M7.6,13.7l4.3,4.5" style="stroke-dashoffset: 7; stroke-dasharray: 7;"/>
	<path class="line" d="M7.6,14.3l4.3-4.5" style="stroke-dashoffset: 7; stroke-dasharray: 7;"/>
</g>

<g class="root" id="arrow-down" viewBox="0 0 28 28">
	<path class="line" d="M14,25.3c6.2,0,11.3-5.1,11.3-11.3S20.2,2.7,14,2.7C7.8,2.7,2.7,7.8,2.7,14C2.7,20.2,7.8,25.3,14,25.3z" style="stroke-dashoffset: 71; stroke-dasharray: 71;"/>
	<path class="line" d="M14,20.2v-13" style="stroke-dashoffset: 13; stroke-dasharray: 13;"/>
	<path class="line" d="M13.7,20.4l4.5-4.3" style="stroke-dashoffset: 7; stroke-dasharray: 7;"/>
	<path class="line" d="M14.3,20.4l-4.5-4.3" style="stroke-dashoffset: 7; stroke-dasharray: 7;"/>
</g>

</svg>


